<?xml version="1.0" encoding="utf-8"?>
<!-- Generator: Adobe Illustrator 16.0.0, SVG Export Plug-In . SVG Version: 6.00 Build 0)  -->
<!DOCTYPE svg PUBLIC "-//W3C//DTD SVG 1.1//EN" "http://www.w3.org/Graphics/SVG/1.1/DTD/svg11.dtd">
<svg version="1.1" id="Layer_1" xmlns="http://www.w3.org/2000/svg" xmlns:xlink="http://www.w3.org/1999/xlink" x="0px" y="0px"
	 width="500px" height="500px" viewBox="0 0 500 500" enable-background="new 0 0 500 500" xml:space="preserve">
<path fill="#FFFFFF" d="M250,25C126,25,25,126,25,250c0,49.5,15.5,96,45.5,135.5c1,10,2.5,43.5-29.5,65l0,0c-0.5,0.5-1,1-1.5,1
	L39,452l-0.5,0.5c0,0.5-0.5,0.5-0.5,1s-0.5,0.5-0.5,1s0,0.5-0.5,1c0,0.5,0,0.5-0.5,1c0,0.5,0,1,0,2l0,0v0.5c0,0.5,0,1,0,1.5
	s0,0.5,0.5,1c0,0.5,0,0.5,0.5,1c0,0.5,0.5,1,0.5,1.5c0,0,0,0,0,0.5l0,0c0.5,0.5,1,1,1,1.5l0.5,0.5c0,0,0.5,0.5,1,0.5
	c0,0,0.5,0.5,1,0.5s0.5,0.5,1,0.5H43c0.5,0,0.5,0,1,0.5c0.5,0,1,0,2,0l0,0c66,0,99-9.5,110-13.5c29.5,13,61,20,94,20
	c124,0,225-101,225-225S374,25,250,25z M250,456c-31.5,0-61.5-7-89.5-20.5c-0.5,0-0.5,0-1-0.5l0,0c-0.5,0-1-0.5-1.5-0.5l0,0
	c-0.5,0-1,0-1.5,0H156c-0.5,0-1,0-1.5,0H154c-0.5,0-0.5,0-1,0.5h-0.5c0,0-22.5,10.5-80.5,13c20.5-25.5,19.5-55,18-65
	c-0.5-3-1.5-6.5-3.5-9C58.5,338,44,295,44,250c0-113.5,92.5-206,206-206s206,92.5,206,206S363.5,456,250,456z M357,190
	c0,5.5-4.5,9.5-9.5,9.5H156c-5.5,0-9.5-4.5-9.5-9.5c0-5.5,4.5-9.5,9.5-9.5h191.5C353,180.5,357,185,357,190z M357,247.5
	c0,5.5-4.5,9.5-9.5,9.5H156c-5.5,0-9.5-4.5-9.5-9.5c0-5.5,4.5-9.5,9.5-9.5h191.5C353,238,357,242.5,357,247.5z M357,305
	c0,5.5-4.5,9.5-9.5,9.5H156c-5.5,0-9.5-4.5-9.5-9.5c0-5.5,4.5-9.5,9.5-9.5h191.5C353,295.5,357,300,357,305z"/>
</svg>
