<?xml version="1.0" encoding="utf-8"?>
<!-- Generator: Adobe Illustrator 16.0.0, SVG Export Plug-In . SVG Version: 6.00 Build 0)  -->
<!DOCTYPE svg PUBLIC "-//W3C//DTD SVG 1.1//EN" "http://www.w3.org/Graphics/SVG/1.1/DTD/svg11.dtd">
<svg version="1.1" id="Layer_1" xmlns="http://www.w3.org/2000/svg" xmlns:xlink="http://www.w3.org/1999/xlink" x="0px" y="0px"
	 width="700px" height="700px" viewBox="0 0 700 700" enable-background="new 0 0 700 700" xml:space="preserve">
<g id="XMLID_2_">
	<g>
		<path fill="none" stroke="#FFFFFF" stroke-width="25" stroke-miterlimit="10" d="M226.036,658.754
			c-16.961,0-30.737-12.016-30.737-26.813V56.556c0-14.811,13.775-26.813,30.737-26.813h285.532
			c16.979,0,30.753,12.017,30.753,26.813v575.386c0,14.796-13.773,26.813-30.753,26.813H226.036z"/>
		
			<rect x="231.044" y="118.602" fill="none" stroke="#FFFFFF" stroke-width="25" stroke-miterlimit="10" width="275.532" height="442.783"/>
		<path fill="none" stroke="#FFFFFF" stroke-width="20" stroke-miterlimit="10" d="M368.81,589.793
			c-10.983,0-19.876,8.894-19.876,19.877s8.893,19.877,19.876,19.877c10.984,0,19.877-8.894,19.877-19.877
			C388.688,598.687,379.794,589.793,368.81,589.793z"/>
	</g>
</g>
</svg>
