<?xml version="1.0" encoding="utf-8"?>
<!-- Generator: Adobe Illustrator 16.0.0, SVG Export Plug-In . SVG Version: 6.00 Build 0)  -->
<!DOCTYPE svg PUBLIC "-//W3C//DTD SVG 1.1//EN" "http://www.w3.org/Graphics/SVG/1.1/DTD/svg11.dtd">
<svg version="1.1" id="Layer_1" xmlns="http://www.w3.org/2000/svg" xmlns:xlink="http://www.w3.org/1999/xlink" x="0px" y="0px"
	 width="500px" height="500px" viewBox="0 0 500 500" enable-background="new 0 0 500 500" xml:space="preserve">
<path fill="#FFFFFF" d="M355,25H145c-16.5,0-30,13.5-30,30v390c0,16.5,13.5,30,30,30h210c16.5,0,30-13.5,30-30V55
	C385,38.5,371.5,25,355,25z M355,55v40H145V55H355z M355,115v240H145V115H355z M145,445v-70h210v70H145z M210,75c0-5.5,4.5-10,10-10
	h60c5.5,0,10,4.5,10,10s-4.5,10-10,10h-60C214.5,85,210,80.5,210,75z M250,385c-14,0-25,11-25,25s11,25,25,25s25-11,25-25
	S264,385,250,385z M250,415c-3,0-5-2-5-5s2-5,5-5s5,2,5,5S253,415,250,415z"/>
</svg>
