<?xml version="1.0" encoding="utf-8"?>
<!-- Generator: Adobe Illustrator 21.0.2, SVG Export Plug-In . SVG Version: 6.00 Build 0)  -->
<svg version="1.1" id="Layer_1" xmlns="http://www.w3.org/2000/svg" xmlns:xlink="http://www.w3.org/1999/xlink" x="0px" y="0px"
	 viewBox="0 0 100 100" style="enable-background:new 0 0 100 100;" xml:space="preserve">
<path d="M95,32.8c-0.2,7.1-3.2,13.8-8.4,19L55,83.6c-0.8,0.8-2,0.8-2.8,0c-0.8-0.8-0.8-2,0-2.8l31.6-31.7c4.5-4.5,7-10.3,7.2-16.4
	c0.2-6-1.9-11.6-6-15.8c-8.5-8.5-22.9-8-32,1.2l-36,36.1c-9.8,9.8-11,22.3-2.9,30.4c4.9,5,16.2,6.3,21.8,0.6l40.3-40.5
	c5.6-5.6,5.9-14.3,0.8-19.5c-5.1-5.1-13.8-4.8-19.4,0.8l-29.9,30c-0.8,0.8-2,0.8-2.8,0c-0.8-0.8-0.8-2,0-2.8l29.9-30
	c7.1-7.1,18.2-7.5,24.9-0.8c6.6,6.7,6.3,17.9-0.8,25L38.7,88.1c-3.1,3.1-8,4.9-13.2,4.9c-5,0-10.2-1.7-14.1-5.5
	c-9.5-9.6-8.3-24.7,2.9-36l36-36.1C61,4.7,77.8,4.1,87.8,14.2C92.7,19.1,95.2,25.7,95,32.8z"/>
</svg>
