<?xml version="1.0" encoding="utf-8"?>
<!-- Generator: Adobe Illustrator 16.0.0, SVG Export Plug-In . SVG Version: 6.00 Build 0)  -->
<!DOCTYPE svg PUBLIC "-//W3C//DTD SVG 1.1//EN" "http://www.w3.org/Graphics/SVG/1.1/DTD/svg11.dtd">
<svg version="1.1" id="Layer_1" xmlns="http://www.w3.org/2000/svg" xmlns:xlink="http://www.w3.org/1999/xlink" x="0px" y="0px"
	 width="1000px" height="1000px" viewBox="-250 -250 1000 1000" enable-background="new -250 -250 1000 1000" xml:space="preserve">
<path fill="#FFFFFF" d="M122.493,258.099l-36.121,36.12c-2.833,2.833-6.374,4.25-9.915,4.25c-3.542,0-7.083-1.417-9.916-4.25
	c-5.666-5.666-5.666-14.165,0-19.83l36.121-36.121c5.666-5.666,14.165-5.666,19.831,0
	C128.159,243.934,128.159,252.433,122.493,258.099z M61.583,306.259c-0.708-0.708-0.708-1.416-1.417-2.124
	c-0.708-0.709-1.417-1.417-1.417-2.125c-0.708-0.708-1.416-1.416-2.125-1.416c-0.708-0.708-1.416-0.708-2.833-1.417
	c-0.708-0.708-1.416-0.708-2.833-0.708c-4.958-0.708-9.916,0.708-12.749,3.541c-0.708,0.708-1.417,1.416-1.417,2.125
	c-0.708,0.708-0.708,1.416-1.417,2.124c-0.708,0.708-0.708,1.417-0.708,2.833c0,0.709,0,2.125,0,2.834
	c0,3.541,1.417,7.082,4.25,9.915c0.708,0.708,1.416,1.416,2.125,1.416c0.708,0.709,1.416,0.709,2.125,1.417
	c0.708,0,1.416,0.708,2.833,0.708c0.708,0,2.125,0,2.833,0c2.125,0,3.542,0,5.666-1.416c1.417-0.709,3.542-1.417,4.25-2.834
	c2.833-2.833,4.25-6.373,4.25-9.915c0-0.708,0-2.125,0-2.833C62.292,308.384,62.292,306.967,61.583,306.259z M79.998,216.313
	c5.666-5.667,5.666-14.165,0-19.832c-5.666-5.666-14.165-5.666-19.831,0l-22.664,22.664c-0.708,0.708-23.372,23.373-45.328,7.791
	c-6.374-4.25-14.873-2.833-19.831,3.542c-4.25,6.374-2.833,14.873,3.542,19.831c10.623,7.791,21.955,10.624,32.579,10.624
	c21.248,0,39.662-12.041,49.578-21.248L79.998,216.313z M-39.696,214.188c0-0.709-0.708-1.417-1.416-2.125
	c-0.708-0.708-0.708-1.417-1.417-2.125c-4.958-5.666-14.873-4.958-19.831,0c-0.708,0.708-1.417,1.417-1.417,2.125
	s-1.417,1.416-2.125,2.125c-0.708,0.708-0.708,1.416-0.708,2.833c0,0.708,0,2.125,0,2.833c0,2.125,0,3.542,0.708,5.667
	c0.708,2.124,1.417,3.541,2.833,4.958c3.542,2.125,7.083,3.541,10.624,3.541c3.541,0,7.083-1.417,9.916-4.25
	c2.833-2.833,4.25-6.374,4.25-9.916c0-0.708,0-2.125,0-2.833C-38.988,215.604-38.988,214.896-39.696,214.188z M143.032,279.346
	l-22.664,22.664c-14.165,14.165-33.996,48.869-10.624,82.156c2.833,3.541,7.082,5.666,11.332,5.666c2.833,0,5.666-0.709,8.499-2.833
	c6.374-4.249,7.791-13.457,3.541-19.831c-14.873-21.247,4.958-43.202,7.791-45.327l22.664-22.664c5.666-5.666,5.666-14.165,0-19.831
	C157.905,273.68,148.698,273.68,143.032,279.346z M152.947,406.122c0-0.709-0.708-1.416-1.416-2.125s-1.417-1.416-1.417-2.125
	c-0.708-0.708-1.416-1.416-2.125-1.416c-0.708,0-1.416-0.709-2.833-1.417c-0.708,0-1.416-0.708-2.833-0.708
	c-4.958-0.708-9.207,0.708-12.748,3.541c-0.708,0.709-1.417,1.416-1.417,2.125c-0.708,0.709-0.708,1.416-1.417,2.125
	c-0.708,0.709-0.708,1.416-0.708,2.833c0,0.708,0,2.124,0,2.833c0,3.541,1.417,7.083,4.25,9.915c2.833,2.833,6.375,4.25,9.916,4.25
	c3.542,0,7.083-1.417,9.915-4.25c2.833-2.832,4.25-6.374,4.25-9.915c0-0.709,0-2.125,0-2.833
	C153.656,408.247,152.947,406.831,152.947,406.122z M512.028,26.502c-9.916,12.749-22.664,25.497-36.829,39.662
	c6.374,34.704,18.414,165.729-113.32,260.635l0,0c-1.416,0.708-2.125,1.416-3.541,1.416h-0.708c-1.416,0-2.125,0.708-3.541,0.708
	l0,0l0,0c-0.708,0-2.125,0-2.832,0h-0.709c-0.709,0-1.416-0.708-2.125-0.708s-0.709,0-0.709-0.708c-0.707,0-1.416-0.708-1.416-0.708
	c-0.708,0-0.708-0.709-0.708-0.709c-0.708-0.708-1.417-0.708-1.417-1.416c0,0,0,0-0.708-0.708l0,0c0-0.709-0.708-0.709-0.708-1.417
	l-0.708-0.708c0-0.709,0-0.709-0.708-1.417c0-0.708,0-0.708-0.708-1.416c0,0,0-0.709,0-1.417s0-1.416,0-1.416l0,0
	c0-28.33-24.081-69.408-48.161-101.987c-0.709,0.708-2.125,1.416-2.833,2.125c-7.082,4.958-15.582,7.79-23.372,7.79
	c-4.958,0-9.915-0.708-14.165-2.833l-25.497,26.205c-6.374,6.374-14.873,9.207-23.372,9.207c-8.499,0-16.998-3.541-23.372-9.207
	l-64.451-64.451c-6.375-6.374-9.207-14.165-9.207-23.372c0-8.499,3.541-16.998,9.207-23.372l26.205-26.205
	c-5.666-12.041-3.542-26.205,4.25-37.537c0.708-0.709,0.708-1.417,1.416-2.125C114.702,46.333,73.624,22.253,45.294,22.253l0,0l0,0
	c-1.417,0-2.833,0-3.542-0.708h-0.708c-1.417-0.708-2.125-0.708-3.542-1.417l0,0l-0.708-0.708c-0.708,0-0.708-0.708-1.417-1.416
	l-0.708-0.708c0,0-2.125-3.542-2.125-4.25c0-0.708-0.708-0.708-0.708-1.417c0-0.708-0.708-0.708-0.708-1.416
	c0-0.709,0-0.709-0.708-1.417c0-0.708,0-0.708-0.708-1.417c0-0.708,0-0.708,0-1.416V5.255l0,0c0-0.708,0-1.417,0-1.417
	c0-0.708,0-0.708,0-1.416c0-0.709,0-0.709,0.708-1.417c0-0.708,0-0.708,0.708-1.417l0.708-0.708c0-0.708,0.708-0.708,0.708-1.417
	l0,0C89.913-81.859,160.029-108.064,208.19-115.855c38.954-6.375,70.116-2.125,84.989,0c13.457-14.165,26.913-26.206,39.662-36.829
	c70.825-57.368,182.019-59.493,214.598-58.785c12.749,0,23.372,10.624,23.372,23.372C571.521-155.517,569.396-44.322,512.028,26.502
	z M162.863,44.917c26.205-36.121,64.45-87.823,104.112-131.734c1.417-1.416,2.125-2.125,3.542-3.541
	C228.729-93.899,143.032-89.65,71.499-5.369l-0.708,0.708C101.245,3.838,135.949,25.086,162.863,44.917z M225.896,204.272
	c-31.163-21.956-54.535-49.577-70.116-71.533l-21.956,21.956c-1.417,1.416-1.417,2.833-1.417,3.541s0,2.125,1.417,3.542l64.45,64.45
	c1.417,1.416,4.958,1.416,6.375,0L225.896,204.272z M450.41,89.536c-1.416,1.416-2.125,2.125-3.541,2.833
	c-46.036,40.37-98.446,79.323-132.441,104.112c19.83,26.914,41.077,61.618,49.576,92.781l0.709-0.709
	C448.994,217.021,453.952,131.322,450.41,89.536z M542.482-183.139h-3.542c-36.828,0-129.608,4.958-189.102,52.411
	C284.681-78.318,194.025,48.458,167.112,85.995c-2.125,3.542-3.541,7.791-1.416,10.624c5.666,9.916,16.29,26.205,31.871,43.911
	l60.909-60.909c5.666-5.667,14.165-5.667,19.831,0c5.666,5.666,5.666,14.164,0,19.831l-61.617,61.618
	c12.748,12.04,27.622,23.372,43.911,32.579c2.833,1.417,7.082,0.708,9.916-1.416C308.053,166.027,435.537,74.663,487.947,9.504
	C538.94-52.113,542.482-148.434,542.482-183.139z M441.912-82.567c12.04,12.04,18.413,28.33,18.413,44.62
	c0,16.289-6.373,32.579-18.413,44.619c-12.04,12.04-27.623,18.415-44.62,18.415c-16.998,0-32.579-6.375-44.619-18.415
	c-24.789-24.789-24.789-64.451,0-88.531c12.04-12.04,27.621-18.414,44.619-18.414C413.582-100.273,429.872-93.899,441.912-82.567z
	 M421.372-62.028c-6.374-6.374-14.873-9.916-24.788-9.916c-9.207,0-17.706,3.542-24.081,9.916
	c-13.456,13.457-13.456,35.412,0,48.869c6.375,6.375,14.874,9.916,24.081,9.916s17.705-3.541,24.788-9.916
	C434.829-26.616,434.829-48.572,421.372-62.028z M303.095,51.999c-0.708-0.708-1.416-1.416-2.124-1.416s-1.416-0.709-2.833-0.709
	c-1.416-0.708-3.541-0.708-5.666,0c-0.709,0-1.417,0.709-2.833,0.709c-1.417,0-1.417,0.708-2.125,1.416s-1.416,0.708-2.124,1.417
	c-2.833,2.833-4.25,6.374-4.25,9.915c0,0.708,0,2.125,0,2.833s0.708,1.417,0.708,2.833c0.709,0.708,0.709,1.417,1.417,2.833
	c0.708,0.709,1.416,1.417,1.416,2.125c0.709,0.708,1.417,1.417,2.125,1.417c0.708,0.708,1.416,0.708,2.124,1.417
	c0.709,0.708,1.417,0.708,2.833,0.708c0.709,0,2.125,0,2.834,0c0.708,0,2.125,0,2.833,0s2.125-0.708,2.833-0.708
	s1.416-0.708,2.124-1.417s1.416-1.417,2.125-1.417c0.708-0.708,1.416-1.416,1.416-2.125c0.709-0.708,0.709-1.416,1.417-2.833
	c0.708-0.708,0.708-1.417,0.708-2.833c0-0.708,0-2.125,0-2.833c0-3.542-1.416-7.083-4.25-9.915
	C305.22,52.707,303.803,51.999,303.095,51.999z"/>
<g>
	<path fill="#FFFFFF" d="M45.845,590.803c-6.99,0-12.563-1.792-16.715-5.382c-4.156-3.586-7.038-8.025-8.641-13.315
		c-1.602-5.285-2.076-11.049-1.417-17.281c0.664-6.232,2.267-11.942,4.816-17.14c2.549-5.192,5.9-9.49,10.057-12.89
		c4.152-3.399,9.065-4.909,14.731-4.533c6.609,0.381,11.991,2.364,16.148,5.949c4.152,3.59,7.175,8.03,9.065,13.315
		c1.886,5.29,2.691,10.907,2.408,16.856c-0.284,5.949-1.656,11.474-4.108,16.572c-2.457,5.1-5.905,9.35-10.34,12.749
		C57.411,589.104,52.077,590.803,45.845,590.803z M49.527,578.055c2.076,0.19,3.776-0.801,5.1-2.975
		c1.319-2.169,2.266-5.002,2.833-8.499c0.566-3.492,0.801-7.317,0.708-11.474c-0.097-4.152-0.566-8.025-1.417-11.615
		c-0.85-3.585-2.032-6.608-3.541-9.065c-1.514-2.452-3.307-3.683-5.383-3.683c-1.89,0-3.497,1.133-4.816,3.399
		c-1.324,2.267-2.315,5.1-2.975,8.499c-0.664,3.399-0.992,7.131-0.992,11.19c0,4.063,0.376,7.839,1.133,11.332
		c0.752,3.497,1.886,6.472,3.399,8.924C45.088,576.545,47.071,577.869,49.527,578.055z"/>
	<path fill="#FFFFFF" d="M87.204,476.067c0-4.533,1.226-7.693,3.683-9.49c2.453-1.793,5.1-2.594,7.933-2.408
		c2.833,0.19,5.334,1.23,7.507,3.116c2.169,1.89,2.975,4.347,2.408,7.366c-0.381,1.323-0.806,4.63-1.275,9.915
		c-0.474,5.29-1.089,11.713-1.842,19.265c-0.757,7.556-1.465,15.864-2.125,24.93c-0.664,9.065-1.275,18.038-1.841,26.913
		c2.266-4.908,4.767-9.676,7.507-14.307c2.735-4.625,4.86-7.977,6.374-10.057c1.51-1.886,3.683-3.351,6.516-4.391
		c2.833-1.036,5.568-1.51,8.215-1.417c2.643,0.098,4.768,0.757,6.375,1.983c1.602,1.23,1.934,3.165,0.991,5.808
		c-0.566,1.699-1.23,5.24-1.983,10.623c-0.757,5.383-1.372,10.907-1.841,16.573c-0.474,5.666-0.664,10.766-0.567,15.298
		c0.093,4.533,0.611,6.8,1.558,6.8c1.133,0,2.594-1.319,4.391-3.967c1.793-2.643,3.634-5.808,5.524-9.49
		c1.886-3.683,3.585-7.459,5.1-11.332c1.509-3.869,2.643-7.033,3.399-9.49c0.566-1.7,1.461-2.833,2.691-3.399
		c1.226-0.567,2.408-0.753,3.541-0.567c1.133,0.19,2.076,0.806,2.833,1.842c0.752,1.04,0.943,2.408,0.567,4.108
		c-0.567,2.646-1.797,6.374-3.683,11.189c-1.89,4.816-4.205,9.729-6.941,14.731c-2.74,5.007-5.856,9.446-9.349,13.315
		c-3.497,3.873-7.038,6.188-10.624,6.94c-3.966,0.758-7.18,0.381-9.632-1.133c-2.457-1.51-4.347-3.683-5.666-6.516
		c-1.323-2.833-2.222-6.136-2.691-9.916c-0.474-3.775-0.664-7.458-0.566-11.048c0.093-3.586,0.376-6.893,0.85-9.916
		c0.469-3.019,0.991-5.285,1.558-6.799c-0.947,0.381-2.267,2.505-3.966,6.374c-1.7,3.873-3.448,8.216-5.241,13.032
		c-1.797,4.815-3.448,9.587-4.958,14.306c-1.514,4.724-2.364,8.216-2.55,10.482c0,0.566-0.097,0.947-0.283,1.133v2.833
		c0,2.643-1.089,4.675-3.258,6.091c-2.174,1.417-4.533,2.17-7.083,2.267c-2.55,0.093-4.816-0.474-6.799-1.699
		c-1.983-1.23-2.784-3.258-2.408-6.091c0.381-4.719,0.85-10.81,1.417-18.273c0.567-7.458,1.133-15.439,1.7-23.938
		c0.566-8.499,1.133-17.14,1.7-25.922c0.566-8.782,1.036-16.949,1.417-24.505c0.376-7.552,0.708-14.116,0.991-19.689
		C87.063,481.973,87.204,478.147,87.204,476.067z"/>
	<path fill="#FFFFFF" d="M247.262,523.944c2.452-1.318,4.909-1.318,7.365,0c2.453,1.324,4.343,3.165,5.666,5.524
		c1.319,2.364,1.744,4.816,1.275,7.366c-0.474,2.55-2.408,4.298-5.808,5.241c-3.023,0.757-6.188,1.514-9.491,2.266
		c-3.307,0.758-6.423,1.417-9.349,1.983c-2.931,0.566-5.432,1.089-7.507,1.559c-2.081,0.474-3.4,0.708-3.966,0.708
		c0.376,0,2.408,0.522,6.091,1.558c3.683,1.041,7.601,2.74,11.757,5.1c4.152,2.364,7.932,5.524,11.332,9.491
		c3.4,3.966,5.1,8.972,5.1,15.015c0,6.613-2.267,11.854-6.799,15.723c-4.533,3.869-9.823,6.467-15.865,7.791
		c-3.78,0.566-7.415,0.566-10.907,0c-3.497-0.566-6.613-1.749-9.349-3.541c-2.74-1.793-4.958-4.25-6.658-7.366
		s-2.549-6.844-2.549-11.19c0-3.585,1.177-6.418,3.541-8.499c2.359-2.076,4.909-3.399,7.649-3.966
		c2.736-0.566,5.192-0.283,7.366,0.85c2.169,1.134,3.068,3.116,2.691,5.949c-0.947,5.856-0.664,10.106,0.85,12.749
		c1.509,2.646,3.019,3.966,4.533,3.966c1.886,0,3.444-0.659,4.674-1.983c1.226-1.318,1.935-3.067,2.125-5.241
		c0.186-2.169-0.19-4.625-1.133-7.365c-0.947-2.735-2.457-5.524-4.533-8.357c-1.7-2.452-3.825-4.675-6.375-6.657
		c-2.55-1.983-5.099-3.683-7.649-5.1c-2.55-1.416-5.055-2.55-7.507-3.399c-2.457-0.85-4.44-1.461-5.949-1.842
		c-1.7-0.376-2.975-1.558-3.825-3.541c-0.85-1.983-1.226-4.06-1.133-6.232c0.098-2.169,0.85-4.152,2.267-5.949
		c1.417-1.793,3.541-2.691,6.374-2.691c5.666,0,11.757-0.895,18.273-2.691C236.354,529.376,242.162,526.968,247.262,523.944z"/>
	<path fill="#FFFFFF" d="M270.773,534.71c0.567-3.775,2.169-6.608,4.816-8.499c2.643-1.886,5.334-2.926,8.074-3.116
		c2.735-0.186,5.144,0.381,7.224,1.7c2.076,1.323,2.926,3.399,2.55,6.232c-0.381,2.647-0.898,5.622-1.558,8.924
		c-0.664,3.307-1.275,6.613-1.842,9.915c-0.566,3.307-0.991,6.423-1.274,9.35c-0.284,2.93-0.332,5.338-0.142,7.224
		c1.509-5.1,3.258-9.677,5.24-13.74c1.983-4.059,4.011-7.507,6.091-10.34c1.51-1.886,3.586-3.351,6.233-4.392
		c2.643-1.035,5.192-1.509,7.648-1.416c2.452,0.098,4.436,0.806,5.949,2.125c1.51,1.323,1.793,3.213,0.851,5.665
		c-0.567,1.7-1.09,4.348-1.559,7.933c-0.474,3.59-0.708,7.225-0.708,10.907s0.186,6.896,0.566,9.632
		c0.376,2.74,1.036,4.108,1.983,4.108c1.133,0,2.643-1.036,4.532-3.116c1.886-2.076,3.776-4.577,5.666-7.508
		c1.886-2.926,3.635-6.042,5.241-9.349c1.603-3.303,2.784-6.184,3.541-8.641c0.376-1.7,1.178-2.833,2.408-3.399
		c1.227-0.567,2.408-0.753,3.541-0.567c1.134,0.19,2.076,0.806,2.833,1.842c0.753,1.04,0.943,2.408,0.566,4.108
		c-0.566,2.646-1.89,6.232-3.966,10.765c-2.08,4.533-4.533,8.973-7.366,13.315c-2.833,4.347-5.949,8.171-9.349,11.474
		c-3.399,3.307-6.706,4.957-9.915,4.957c-5.48,0-9.397-1.46-11.757-4.391c-2.364-2.926-3.922-6.232-4.675-9.915
		c-0.757-3.684-1.04-7.269-0.85-10.766c0.186-3.493,0.093-5.71-0.283-6.657c-0.947,0.38-1.939,1.699-2.975,3.966
		c-1.04,2.267-2.032,4.913-2.975,7.933c-0.947,3.023-1.798,6.188-2.55,9.49c-0.757,3.307-1.23,6.091-1.417,8.357
		c-0.38,2.456-1.655,4.298-3.824,5.524c-2.174,1.23-4.532,1.841-7.082,1.841s-4.865-0.659-6.941-1.982
		c-2.08-1.319-3.023-3.4-2.833-6.233c0.187-3.209,0.187-7.082,0-11.614c-0.19-4.533-0.381-9.301-0.566-14.307
		c-0.19-5.002-0.283-9.867-0.283-14.59C269.641,542.74,270.017,538.49,270.773,534.71z"/>
	<path fill="#FFFFFF" d="M373.323,520.828c2.644,0.567,4.958,1.798,6.941,3.684c1.983,1.89,3.634,3.966,4.958,6.232
		c1.509-1.7,3.399-2.643,5.666-2.833c2.266-0.187,4.435,0.142,6.516,0.991c2.076,0.85,3.775,2.174,5.1,3.967
		c1.318,1.797,1.792,3.922,1.416,6.374c-0.757,3.399-1.465,7.648-2.125,12.748c-0.664,5.1-1.089,10.013-1.274,14.731
		c-0.19,4.724-0.049,8.782,0.425,12.182c0.469,3.4,1.461,5.1,2.975,5.1c1.133,0,2.501-1.461,4.107-4.391
		c1.603-2.927,3.21-6.375,4.816-10.341c1.603-3.966,3.067-7.933,4.392-11.898c1.318-3.966,2.169-6.985,2.549-9.065
		c0.567-1.886,1.51-3.161,2.833-3.824c1.319-0.66,2.595-0.851,3.825-0.567c1.226,0.283,2.267,0.992,3.116,2.125
		s0.991,2.55,0.425,4.25c-0.381,1.133-0.991,3.258-1.842,6.374c-0.85,3.116-1.938,6.564-3.258,10.34
		c-1.323,3.78-2.882,7.698-4.674,11.757c-1.798,4.063-3.874,7.649-6.233,10.766c-2.363,3.116-5.006,5.524-7.932,7.225
		c-2.931,1.699-6.091,2.075-9.491,1.133c-5.479-1.51-9.445-4.816-11.898-9.916c-1.514,4.533-3.59,8.641-6.232,12.324
		c-2.646,3.683-6.047,6.374-10.198,8.074c-3.967,1.318-7.464,1.602-10.482,0.85c-5.479-1.514-9.822-4.914-13.031-10.199
		c-3.214-5.285-5.383-11.425-6.517-18.414c-1.133-6.985-1.226-14.258-0.283-21.814c0.947-7.551,2.878-14.351,5.808-20.397
		c2.926-6.042,6.844-10.81,11.757-14.306C360.385,520.594,366.334,519.51,373.323,520.828z M380.689,549.441
		c-0.381-3.209-1.089-6.325-2.125-9.349c-1.04-3.019-2.598-4.719-4.674-5.1c-3.023-0.566-5.715,0.522-8.074,3.258
		c-2.364,2.74-4.298,6.375-5.808,10.907c-1.514,4.533-2.599,9.49-3.258,14.873c-0.664,5.383-0.85,10.482-0.566,15.299
		c0.283,4.815,1.035,8.924,2.266,12.323c1.227,3.399,3.068,5.289,5.524,5.666c2.452,0.381,4.768-0.943,6.941-3.967
		c2.169-3.019,4.059-6.892,5.666-11.615c1.602-4.719,2.833-9.959,3.683-15.723C381.114,560.256,381.256,554.731,380.689,549.441z"/>
	<path fill="#FFFFFF" d="M420.351,516.013c0-3.586,1.227-6.516,3.683-8.782c2.453-2.267,5.1-3.825,7.933-4.675
		s5.334-0.942,7.508-0.283c2.169,0.664,3.067,2.222,2.691,4.675c-0.381,2.08-0.709,4.815-0.992,8.215
		c-0.283,3.4-0.615,7.273-0.991,11.615c1.886-1.886,4.294-3.585,7.224-5.099c2.927-1.51,6.092-2.169,9.491-1.983
		c5.852,0.381,10.433,2.55,13.739,6.516c3.303,3.967,5.618,8.689,6.941,14.165c1.319,5.48,1.603,11.332,0.85,17.564
		c-0.757,6.232-2.363,11.996-4.815,17.281c-2.457,5.29-5.622,9.588-9.491,12.891c-3.873,3.307-8.357,4.771-13.456,4.391
		c-3.4,0-6.8-1.133-10.199-3.399c-0.566-0.376-1.133-0.753-1.699-1.134c-0.567-0.376-1.134-0.85-1.7-1.416
		c-0.381,7.366-0.615,14.209-0.708,20.539c-0.098,6.325-0.142,11.376-0.142,15.156c0,2.076-1.089,3.684-3.258,4.816
		c-2.174,1.133-4.489,1.744-6.941,1.842c-2.457,0.093-4.723-0.381-6.799-1.417c-2.076-1.04-2.926-2.691-2.55-4.958
		c0.381-3.78,0.757-8.782,1.133-15.015c0.381-6.232,0.709-13.031,0.992-20.397c0.283-7.365,0.522-14.917,0.708-22.664
		c0.19-7.741,0.327-14.917,0.425-21.53c0.093-6.608,0.186-12.323,0.283-17.14C420.302,520.97,420.351,517.712,420.351,516.013z
		 M443.015,539.81c-1.7,3.966-2.882,8.216-3.541,12.748c-0.664,4.533-0.806,8.782-0.425,12.749
		c0.376,3.966,1.318,7.365,2.833,10.198c1.509,2.833,3.399,4.44,5.666,4.816c1.886,0.381,3.634-0.566,5.24-2.833
		c1.603-2.267,2.927-5.144,3.967-8.641c1.035-3.492,1.841-7.366,2.408-11.615c0.566-4.25,0.708-8.26,0.425-12.04
		c-0.283-3.776-0.947-6.941-1.983-9.49c-1.04-2.55-2.599-3.918-4.675-4.108c-2.08-0.186-3.966,0.566-5.666,2.267
		C445.564,535.56,444.147,537.543,443.015,539.81z"/>
</g>
<g>
	<path fill="#FFFFFF" d="M13.297,669.555c-2.153,2.663-5.609,3.966-9.972,3.966c-6.515,0-10.595-4.022-10.595-9.349
		c0-5.495,4.136-9.008,11.388-9.064h9.122v-0.906c0-3.796-2.437-6.063-7.195-6.063c-2.89,0-5.893,1.02-8.895,3.06l-2.663-4.532
		c4.193-2.493,7.252-3.796,12.974-3.796c7.762,0,12.125,3.966,12.181,10.595l0.057,19.772h-6.402V669.555z M13.241,662.643v-2.776
		H5.082c-4.249,0-6.232,1.134-6.232,4.022c0,2.72,2.209,4.477,5.835,4.477C9.331,668.365,12.9,665.929,13.241,662.643z"/>
	<path fill="#FFFFFF" d="M28.71,673.237v-42.039h6.515v42.039H28.71z"/>
	<path fill="#FFFFFF" d="M52.167,634.484c0,2.267-1.643,3.909-3.796,3.909c-2.153,0-3.796-1.643-3.796-3.909
		c0-2.322,1.643-3.966,3.796-3.966C50.523,630.519,52.167,632.162,52.167,634.484z M45.141,673.237v-30.141H51.6v30.141H45.141z"/>
	<path fill="#FFFFFF" d="M87.747,660.66H64.972c1.02,4.646,4.589,7.535,9.348,7.535c3.286,0,6.289-1.247,8.499-3.513l3.456,3.683
		c-2.946,3.229-7.252,5.099-12.464,5.099c-9.292,0-15.411-6.176-15.411-15.24c0-9.122,6.289-15.297,15.24-15.354
		C84.234,642.87,88.541,649.782,87.747,660.66z M82.082,655.9c-0.227-4.872-3.456-7.818-8.385-7.818
		c-4.759,0-8.102,3.003-8.838,7.818H82.082z"/>
	<path fill="#FFFFFF" d="M123.386,654.484v18.753h-6.516v-16.94c0-4.532-2.72-7.309-7.252-7.309
		c-4.986,0.057-8.102,3.513-8.555,8.216v16.033h-6.515v-30.141h6.515v5.778c2.153-4.192,6.006-6.005,11.104-6.005
		C119.193,642.87,123.386,647.289,123.386,654.484z"/>
	<path fill="#FFFFFF" d="M166.277,645.872l-2.379,4.816c-2.663-1.644-6.005-2.663-8.668-2.663c-2.549,0-4.419,0.85-4.419,3.003
		c0,5.552,16.034,2.55,15.977,13.484c0,6.175-5.496,8.951-11.558,8.951c-4.419,0-9.122-1.473-12.124-4.192l2.323-4.646
		c2.606,2.322,6.799,3.739,10.085,3.739c2.776,0,4.929-0.964,4.929-3.229c0-6.176-15.864-2.72-15.807-13.598
		c0-6.119,5.325-8.725,11.104-8.725C159.535,642.813,163.558,643.946,166.277,645.872z"/>
	<path fill="#FFFFFF" d="M190.414,671.311c-2.379,1.417-4.873,2.21-7.422,2.21c-4.533,0-8.442-2.606-8.442-8.781v-15.638h-4.249
		v-4.872h4.249v-8.271h6.459v8.271h8.895v4.872h-8.895v14.447c0,3.116,1.19,4.079,3.229,4.079c1.359,0,2.776-0.453,4.532-1.303
		L190.414,671.311z"/>
	<path fill="#FFFFFF" d="M224.691,658.167c0,9.064-6.402,15.297-15.693,15.297c-9.348,0-15.75-6.232-15.75-15.297
		c0-9.122,6.402-15.297,15.75-15.297C218.29,642.87,224.691,649.045,224.691,658.167z M199.763,658.224
		c0,5.835,3.796,9.802,9.235,9.802c5.382,0,9.178-3.967,9.178-9.802c0-5.779-3.796-9.745-9.178-9.745
		C203.559,648.479,199.763,652.444,199.763,658.224z"/>
	<path fill="#FFFFFF" d="M231.776,673.237v-42.039h6.515v42.039H231.776z"/>
	<path fill="#FFFFFF" d="M274.723,660.66h-22.776c1.021,4.646,4.59,7.535,9.349,7.535c3.286,0,6.289-1.247,8.498-3.513l3.456,3.683
		c-2.946,3.229-7.252,5.099-12.464,5.099c-9.292,0-15.411-6.176-15.411-15.24c0-9.122,6.289-15.297,15.241-15.354
		C271.21,642.87,275.516,649.782,274.723,660.66z M269.057,655.9c-0.227-4.872-3.456-7.818-8.385-7.818
		c-4.76,0-8.102,3.003-8.839,7.818H269.057z"/>
	<path fill="#FFFFFF" d="M324.752,658.167c0,9.064-6.402,15.297-15.693,15.297c-9.349,0-15.75-6.232-15.75-15.297
		c0-9.122,6.401-15.297,15.75-15.297C318.35,642.87,324.752,649.045,324.752,658.167z M299.823,658.224
		c0,5.835,3.796,9.802,9.235,9.802c5.382,0,9.178-3.967,9.178-9.802c0-5.779-3.796-9.745-9.178-9.745
		C303.619,648.479,299.823,652.444,299.823,658.224z"/>
	<path fill="#FFFFFF" d="M358.918,673.237h-6.516v-5.893c-2.039,4.193-5.836,6.063-10.765,6.119
		c-6.912,0-11.048-4.419-11.048-11.614v-18.753h6.516v16.939c0,4.533,2.663,7.309,7.025,7.309c5.212-0.113,8.271-4.136,8.271-9.404
		v-14.844h6.516V673.237z"/>
	<path fill="#FFFFFF" d="M375.067,649.102c2.04-4.079,5.666-6.231,10.425-6.231v6.231c-6.063-0.34-9.915,3.229-10.425,8.386v15.75
		h-6.516v-30.141h6.516V649.102z"/>
	<path fill="#FFFFFF" d="M437.221,658.28c0,9.008-5.665,15.184-14.277,15.184c-4.815,0-8.441-1.926-10.651-5.438v16.203h-6.516
		v-41.132h6.516v5.212c2.21-3.513,5.836-5.438,10.538-5.438C431.385,642.87,437.221,649.102,437.221,658.28z M430.648,658.054
		c0-5.609-3.796-9.745-9.178-9.745c-5.383,0-9.179,4.079-9.179,9.745c0,5.835,3.796,9.858,9.179,9.858
		C426.853,667.912,430.648,663.832,430.648,658.054z"/>
	<path fill="#FFFFFF" d="M451.047,634.484c0,2.267-1.643,3.909-3.796,3.909c-2.152,0-3.796-1.643-3.796-3.909
		c0-2.322,1.644-3.966,3.796-3.966C449.404,630.519,451.047,632.162,451.047,634.484z M444.021,673.237v-30.141h6.459v30.141
		H444.021z"/>
	<path fill="#FFFFFF" d="M484.928,647.799l-3.569,4.192c-2.096-2.152-4.985-3.456-8.611-3.399c-5.213,0-8.952,3.909-8.952,9.632
		c0,5.722,3.739,9.632,8.952,9.632c3.796,0,6.855-1.247,8.895-3.626l3.626,3.626c-2.719,3.568-7.082,5.608-12.804,5.608
		c-8.952,0-15.184-6.176-15.184-15.24c0-9.122,6.231-15.354,15.184-15.354C477.902,642.87,482.151,644.626,484.928,647.799z"/>
	<path fill="#FFFFFF" d="M511.615,645.872l-2.38,4.816c-2.663-1.644-6.006-2.663-8.668-2.663c-2.55,0-4.42,0.85-4.42,3.003
		c0,5.552,16.034,2.55,15.978,13.484c0,6.175-5.496,8.951-11.558,8.951c-4.42,0-9.122-1.473-12.125-4.192l2.323-4.646
		c2.606,2.322,6.799,3.739,10.085,3.739c2.776,0,4.929-0.964,4.929-3.229c0-6.176-15.863-2.72-15.807-13.598
		c0-6.119,5.325-8.725,11.104-8.725C504.873,642.813,508.896,643.946,511.615,645.872z"/>
</g>
</svg>
