<?xml version="1.0" encoding="utf-8"?>
<!-- Generator: Adobe Illustrator 21.0.2, SVG Export Plug-In . SVG Version: 6.00 Build 0)  -->
<svg version="1.1" id="Layer_1" xmlns="http://www.w3.org/2000/svg" xmlns:xlink="http://www.w3.org/1999/xlink" x="0px" y="0px"
	 viewBox="0 0 100 100" style="enable-background:new 0 0 100 100;" xml:space="preserve">
<path d="M31.7,71.3l-5.1,5.1c-0.4,0.4-0.9,0.6-1.4,0.6s-1-0.2-1.4-0.6c-0.8-0.8-0.8-2,0-2.8l5.1-5.1c0.8-0.8,2-0.8,2.8,0
	C32.5,69.3,32.5,70.5,31.7,71.3z M23.1,78.1c-0.1-0.1-0.1-0.2-0.2-0.3c-0.1-0.1-0.2-0.2-0.2-0.3c-0.1-0.1-0.2-0.2-0.3-0.2
	c-0.1-0.1-0.2-0.1-0.4-0.2c-0.1-0.1-0.2-0.1-0.4-0.1c-0.7-0.1-1.4,0.1-1.8,0.5c-0.1,0.1-0.2,0.2-0.2,0.3c-0.1,0.1-0.1,0.2-0.2,0.3
	c-0.1,0.1-0.1,0.2-0.1,0.4c0,0.1,0,0.3,0,0.4c0,0.5,0.2,1,0.6,1.4c0.1,0.1,0.2,0.2,0.3,0.2c0.1,0.1,0.2,0.1,0.3,0.2
	c0.1,0,0.2,0.1,0.4,0.1c0.1,0,0.3,0,0.4,0c0.3,0,0.5,0,0.8-0.2c0.2-0.1,0.5-0.2,0.6-0.4c0.4-0.4,0.6-0.9,0.6-1.4c0-0.1,0-0.3,0-0.4
	C23.2,78.4,23.2,78.2,23.1,78.1z M25.7,65.4c0.8-0.8,0.8-2,0-2.8c-0.8-0.8-2-0.8-2.8,0l-3.2,3.2c-0.1,0.1-3.3,3.3-6.4,1.1
	c-0.9-0.6-2.1-0.4-2.8,0.5c-0.6,0.9-0.4,2.1,0.5,2.8c1.5,1.1,3.1,1.5,4.6,1.5c3,0,5.6-1.7,7-3L25.7,65.4z M8.8,65.1
	c0-0.1-0.1-0.2-0.2-0.3c-0.1-0.1-0.1-0.2-0.2-0.3c-0.7-0.8-2.1-0.7-2.8,0c-0.1,0.1-0.2,0.2-0.2,0.3S5.2,65,5.1,65.1
	c-0.1,0.1-0.1,0.2-0.1,0.4c0,0.1,0,0.3,0,0.4c0,0.3,0,0.5,0.1,0.8s0.2,0.5,0.4,0.7C6,67.7,6.5,67.9,7,67.9c0.5,0,1-0.2,1.4-0.6
	C8.8,66.9,9,66.4,9,65.9c0-0.1,0-0.3,0-0.4C8.9,65.3,8.9,65.2,8.8,65.1z M34.6,74.3l-3.2,3.2c-2,2-4.8,6.9-1.5,11.6
	c0.4,0.5,1,0.8,1.6,0.8c0.4,0,0.8-0.1,1.2-0.4c0.9-0.6,1.1-1.9,0.5-2.8c-2.1-3,0.7-6.1,1.1-6.4l3.2-3.2c0.8-0.8,0.8-2,0-2.8
	C36.7,73.5,35.4,73.5,34.6,74.3z M36,92.2c0-0.1-0.1-0.2-0.2-0.3c-0.1-0.1-0.2-0.2-0.2-0.3c-0.1-0.1-0.2-0.2-0.3-0.2
	s-0.2-0.1-0.4-0.2c-0.1,0-0.2-0.1-0.4-0.1c-0.7-0.1-1.3,0.1-1.8,0.5c-0.1,0.1-0.2,0.2-0.2,0.3c-0.1,0.1-0.1,0.2-0.2,0.3
	s-0.1,0.2-0.1,0.4c0,0.1,0,0.3,0,0.4c0,0.5,0.2,1,0.6,1.4c0.4,0.4,0.9,0.6,1.4,0.6c0.5,0,1-0.2,1.4-0.6c0.4-0.4,0.6-0.9,0.6-1.4
	c0-0.1,0-0.3,0-0.4C36.1,92.5,36,92.3,36,92.2z M86.7,38.6c-1.4,1.8-3.2,3.6-5.2,5.6c0.9,4.9,2.6,23.4-16,36.8c0,0,0,0,0,0
	c-0.2,0.1-0.3,0.2-0.5,0.2c0,0-0.1,0-0.1,0c-0.2,0-0.3,0.1-0.5,0.1c0,0,0,0,0,0s0,0,0,0c-0.1,0-0.3,0-0.4,0c0,0-0.1,0-0.1,0
	c-0.1,0-0.2-0.1-0.3-0.1c-0.1,0-0.1,0-0.1-0.1c-0.1,0-0.2-0.1-0.2-0.1c-0.1,0-0.1-0.1-0.1-0.1c-0.1-0.1-0.2-0.1-0.2-0.2
	c0,0,0,0-0.1-0.1c0,0,0,0,0,0c0-0.1-0.1-0.1-0.1-0.2c0,0-0.1-0.1-0.1-0.1c0-0.1,0-0.1-0.1-0.2c0-0.1,0-0.1-0.1-0.2c0,0,0-0.1,0-0.2
	c0-0.1,0-0.2,0-0.2c0,0,0,0,0,0c0-4-3.4-9.8-6.8-14.4c-0.1,0.1-0.3,0.2-0.4,0.3c-1,0.7-2.2,1.1-3.3,1.1c-0.7,0-1.4-0.1-2-0.4
	l-3.6,3.7c-0.9,0.9-2.1,1.3-3.3,1.3c-1.2,0-2.4-0.5-3.3-1.3l-9.1-9.1c-0.9-0.9-1.3-2-1.3-3.3c0-1.2,0.5-2.4,1.3-3.3l3.7-3.7
	c-0.8-1.7-0.5-3.7,0.6-5.3c0.1-0.1,0.1-0.2,0.2-0.3c-4.6-3.4-10.4-6.8-14.4-6.8h0c0,0,0,0,0,0c-0.2,0-0.4,0-0.5-0.1c0,0-0.1,0-0.1,0
	c-0.2-0.1-0.3-0.1-0.5-0.2c0,0,0,0,0,0c0,0-0.1-0.1-0.1-0.1c-0.1,0-0.1-0.1-0.2-0.2c0,0-0.1-0.1-0.1-0.1S19,36.8,19,36.7
	c0-0.1-0.1-0.1-0.1-0.2c0-0.1-0.1-0.1-0.1-0.2c0-0.1,0-0.1-0.1-0.2c0-0.1,0-0.1-0.1-0.2c0-0.1,0-0.1,0-0.2c0,0,0-0.1,0-0.1v0
	c0-0.1,0-0.2,0-0.2c0-0.1,0-0.1,0-0.2c0-0.1,0-0.1,0.1-0.2c0-0.1,0-0.1,0.1-0.2c0,0,0.1-0.1,0.1-0.1c0-0.1,0.1-0.1,0.1-0.2
	c0,0,0,0,0,0c8.1-11.2,18-14.9,24.8-16c5.5-0.9,9.9-0.3,12,0c1.9-2,3.8-3.7,5.6-5.2c10-8.1,25.7-8.4,30.3-8.3C93.5,5,95,6.5,95,8.3
	C95.1,12.9,94.8,28.6,86.7,38.6z M37.4,41.2c3.7-5.1,9.1-12.4,14.7-18.6c0.2-0.2,0.3-0.3,0.5-0.5c-5.9-0.5-18,0.1-28.1,12
	c0,0-0.1,0.1-0.1,0.1C28.7,35.4,33.6,38.4,37.4,41.2z M46.3,63.7c-4.4-3.1-7.7-7-9.9-10.1l-3.1,3.1c-0.2,0.2-0.2,0.4-0.2,0.5
	c0,0.1,0,0.3,0.2,0.5l9.1,9.1c0.2,0.2,0.7,0.2,0.9,0L46.3,63.7z M78,47.5c-0.2,0.2-0.3,0.3-0.5,0.4C71,53.6,63.6,59.1,58.8,62.6
	c2.8,3.8,5.8,8.7,7,13.1c0,0,0.1-0.1,0.1-0.1C77.8,65.5,78.5,53.4,78,47.5z M91,9h-0.5c-5.2,0-18.3,0.7-26.7,7.4
	c-9.2,7.4-22,25.3-25.8,30.6c-0.3,0.5-0.5,1.1-0.2,1.5c0.8,1.4,2.3,3.7,4.5,6.2l8.6-8.6c0.8-0.8,2-0.8,2.8,0c0.8,0.8,0.8,2,0,2.8
	l-8.7,8.7c1.8,1.7,3.9,3.3,6.2,4.6c0.4,0.2,1,0.1,1.4-0.2c5.3-3.7,23.3-16.6,30.7-25.8C90.5,27.5,91,13.9,91,9z M76.8,23.2
	c1.7,1.7,2.6,4,2.6,6.3c0,2.3-0.9,4.6-2.6,6.3c-1.7,1.7-3.9,2.6-6.3,2.6c-2.4,0-4.6-0.9-6.3-2.6c-3.5-3.5-3.5-9.1,0-12.5
	c1.7-1.7,3.9-2.6,6.3-2.6C72.8,20.7,75.1,21.6,76.8,23.2z M73.9,26.1c-0.9-0.9-2.1-1.4-3.5-1.4c-1.3,0-2.5,0.5-3.4,1.4
	c-1.9,1.9-1.9,5,0,6.9c0.9,0.9,2.1,1.4,3.4,1.4c1.3,0,2.5-0.5,3.5-1.4C75.8,31.1,75.8,28,73.9,26.1z M57.2,42.2
	C57.1,42.1,57,42,56.9,42s-0.2-0.1-0.4-0.1c-0.2-0.1-0.5-0.1-0.8,0c-0.1,0-0.2,0.1-0.4,0.1s-0.2,0.1-0.3,0.2
	c-0.1,0.1-0.2,0.1-0.3,0.2c-0.4,0.4-0.6,0.9-0.6,1.4c0,0.1,0,0.3,0,0.4c0,0.1,0.1,0.2,0.1,0.4c0.1,0.1,0.1,0.2,0.2,0.4
	c0.1,0.1,0.2,0.2,0.2,0.3c0.1,0.1,0.2,0.2,0.3,0.2c0.1,0.1,0.2,0.1,0.3,0.2s0.2,0.1,0.4,0.1c0.1,0,0.3,0,0.4,0s0.3,0,0.4,0
	c0.1,0,0.3-0.1,0.4-0.1s0.2-0.1,0.3-0.2s0.2-0.2,0.3-0.2c0.1-0.1,0.2-0.2,0.2-0.3c0.1-0.1,0.1-0.2,0.2-0.4c0.1-0.1,0.1-0.2,0.1-0.4
	c0-0.1,0-0.3,0-0.4c0-0.5-0.2-1-0.6-1.4C57.5,42.3,57.3,42.2,57.2,42.2z"/>
</svg>
