<?xml version="1.0" encoding="utf-8"?>
<!-- Generator: Adobe Illustrator 16.0.0, SVG Export Plug-In . SVG Version: 6.00 Build 0)  -->
<!DOCTYPE svg PUBLIC "-//W3C//DTD SVG 1.1//EN" "http://www.w3.org/Graphics/SVG/1.1/DTD/svg11.dtd">
<svg version="1.1" id="Layer_1" xmlns="http://www.w3.org/2000/svg" xmlns:xlink="http://www.w3.org/1999/xlink" x="0px" y="0px"
	 width="500px" height="500px" viewBox="0 0 500 500" enable-background="new 0 0 500 500" xml:space="preserve">
<path fill="#FFFFFF" d="M333,385c0-0.5,0-1.5,0-2c0-2.5,1-5,3-7c0.5-0.5,1-1,1.5-1c0.5-0.5,1-0.5,1.5-1c0.5,0,1-0.5,2-0.5
	c1.5-0.5,2.5-0.5,4,0c0.5,0,1,0.5,2,0.5s1,0.5,1.5,1s1,1,1.5,1c2,2,3,4.5,3,7c0,0.5,0,1.5,0,2s-0.5,1-0.5,2c-0.5,0.5-0.5,1-1,2
	c-1,0-1.5,0.5-1.5,1c-0.5,0.5-1,1-1.5,1c-0.5,0.5-1,0.5-1.5,1c-0.5,0-1,0.5-2,0.5c-0.5,0-1.5,0-2,0c-2.5,0-5-1-7-3
	c-0.5-0.5-1-1-1-1.5c-0.5-0.5-0.5-1-1-2S333,385.5,333,385z M109.5,393c-5.5,0-10-4.5-10-10v-79c0-5.5,4.5-10,10-10h105
	c5.5,0,10,4.5,10,10v79c0,5.5-4.5,10-10,10H109.5z M119.5,373h85v-59h-85V373z M57,287c2.5,0,5-1,7-3s3-4.5,3-7s-1-5-3-7
	c-4-3.5-10.5-3.5-14,0c-2,2-3,4.5-3,7s1,5,3,7S54.5,287,57,287z M475,465c0,5.5-4.5,10-10,10H35c-5.5,0-10-4.5-10-10s4.5-10,10-10
	h13.5c-1-3-1.5-6-1.5-9.5v-137c0-5.5,4.5-10,10-10c4.5,0,8.5,3,9.5,7c0.5,1,0.5,2,0.5,3v137c0,5.5,4,9.5,9.5,9.5h174V304
	c0-5.5,4.5-10,10-10h118c5.5,0,10,4.5,10,10v151H423c5.5,0,9.5-4.5,9.5-9.5v-212L414,252c-1.5,2-4,3-6.5,3s-5-1-7-3L355,206.5
	L337.5,224l-28,28c-2,2-4.5,3-7,3s-5-1-7-3l-12-11.5l-33.5-34L204.5,252c-2,2-4.5,3-7,3s-5-1-7-3L145,206.5L99.5,252c-2,2-4.5,3-7,3
	s-5-1-7-3L67,233.5V245c0,5.5-4.5,10-10,10s-10-4.5-10-10v-31.5l-14-14c-2-2-3-4.5-3-7V140c0,0,0,0,0-0.5s0-0.5,0-1s0-0.5,0-1
	s0-0.5,0-1s0-0.5,0.5-1c0,0,0-0.5,0.5-1c0-0.5,0.5-0.5,0.5-1c0,0,0,0,0-0.5L117,28c2-2.5,5-3.5,7.5-3.5H374c3,0,6,1.5,7.5,3.5
	L467,133c0,0,0,0,0,0.5c0.5,0.5,0.5,0.5,0.5,1s0.5,0.5,0.5,1s0,0.5,0.5,1c0,0.5,0,0.5,0,1s0,0.5,0,1s0,0.5,0,1c0,0,0,0,0,0.5v52.5
	c0,2.5-1,5-3,7l-14,14V445c0,3.5-0.5,6.5-1.5,9.5h15C470.5,455,475,459.5,475,465z M135,150H50v38.5L92.5,231l42.5-42.5V150z
	 M172,45h-42l-69,85h77.5L172,45z M240,150h-85v38.5l42.5,42.5l42.5-42.5V150z M240,45h-46c0,0,0,0,0,0.5L160,130h80V45z M369,314
	h-98.5v141h98V314H369z M260,130h80l-33.5-84.5c0,0,0,0,0-0.5H260V130z M345,150h-85v38.5l42.5,42.5l42.5-42.5V150z M362,130h77.5
	L370,45h-42L362,130z M450,150h-85v38.5l42.5,42.5l42.5-42.5V150z"/>
</svg>
